HIERARCHY
ROOT mixamorig:Hips
{
	OFFSET -0.000008 104.274872 1.554316
	CHANNELS 6 Xposition Yposition Zposition Xrotation Yrotation Zrotation
	JOINT mixamorig:Spine
	{
		OFFSET -0.000005 10.181595 0.131519
		CHANNELS 6 Xposition Yposition Zposition Xrotation Yrotation Zrotation
		JOINT mixamorig:Spine1
		{
			OFFSET -0.000000 9.893959 -1.470707
			CHANNELS 6 Xposition Yposition Zposition Xrotation Yrotation Zrotation
			JOINT mixamorig:Spine2
			{
				OFFSET -0.000000 9.220757 -1.370641
				CHANNELS 6 Xposition Yposition Zposition Xrotation Yrotation Zrotation
				JOINT mixamorig:Neck
				{
					OFFSET 0.000001 16.740417 -2.049036
					CHANNELS 6 Xposition Yposition Zposition Xrotation Yrotation Zrotation
					JOINT mixamorig:Head
					{
						OFFSET 0.000000 9.617874 1.685006
						CHANNELS 6 Xposition Yposition Zposition Xrotation Yrotation Zrotation
						JOINT mixamorig:HeadTop_End
						{
							OFFSET 0.000002 22.037354 7.501101
							CHANNELS 6 Xposition Yposition Zposition Xrotation Yrotation Zrotation
							End Site
							{
								OFFSET 0.000168 2310.654297 -282.823242
							}
						}
					}
				}
				JOINT mixamorig:RightShoulder
				{
					OFFSET -4.569970 11.014908 -2.160885
					CHANNELS 6 Xposition Yposition Zposition Xrotation Yrotation Zrotation
					JOINT mixamorig:RightArm
					{
						OFFSET -10.592851 -0.524811 -2.232101
						CHANNELS 6 Xposition Yposition Zposition Xrotation Yrotation Zrotation
						JOINT mixamorig:RightForeArm
						{
							OFFSET -27.841511 0.000031 -0.000004
							CHANNELS 6 Xposition Yposition Zposition Xrotation Yrotation Zrotation
							JOINT mixamorig:RightHand
							{
								OFFSET -28.328831 -0.000015 0.000015
								CHANNELS 6 Xposition Yposition Zposition Xrotation Yrotation Zrotation
								JOINT mixamorig:RightHandThumb1
								{
									OFFSET -2.464806 -1.573990 2.681852
									CHANNELS 6 Xposition Yposition Zposition Xrotation Yrotation Zrotation
									JOINT mixamorig:RightHandThumb2
									{
										OFFSET -3.215179 -1.872803 1.924282
										CHANNELS 6 Xposition Yposition Zposition Xrotation Yrotation Zrotation
										JOINT mixamorig:RightHandThumb3
										{
											OFFSET -2.654831 -1.527969 1.512609
											CHANNELS 6 Xposition Yposition Zposition Xrotation Yrotation Zrotation
											JOINT mixamorig:RightHandThumb4
											{
												OFFSET -2.018814 -1.152008 1.108052
												CHANNELS 6 Xposition Yposition Zposition Xrotation Yrotation Zrotation
												End Site
												{
													OFFSET -188.809540 -114.533607 132.431396
												}
											}
										}
									}
								}
								JOINT mixamorig:RightHandIndex1
								{
									OFFSET -9.108284 -0.517868 2.259835
									CHANNELS 6 Xposition Yposition Zposition Xrotation Yrotation Zrotation
									JOINT mixamorig:RightHandIndex2
									{
										OFFSET -3.699989 0.000000 0.001215
										CHANNELS 6 Xposition Yposition Zposition Xrotation Yrotation Zrotation
										JOINT mixamorig:RightHandIndex3
										{
											OFFSET -2.850006 0.000031 -0.000522
											CHANNELS 6 Xposition Yposition Zposition Xrotation Yrotation Zrotation
											JOINT mixamorig:RightHandIndex4
											{
												OFFSET -2.772186 -0.000015 -0.000020
												CHANNELS 6 Xposition Yposition Zposition Xrotation Yrotation Zrotation
												End Site
												{
													OFFSET -277.218445 0.000000 -0.050231
												}
											}
										}
									}
								}
								JOINT mixamorig:RightHandMiddle1
								{
									OFFSET -9.532516 -0.000031 -0.000023
									CHANNELS 6 Xposition Yposition Zposition Xrotation Yrotation Zrotation
									JOINT mixamorig:RightHandMiddle2
									{
										OFFSET -3.700005 -0.000015 0.003713
										CHANNELS 6 Xposition Yposition Zposition Xrotation Yrotation Zrotation
										JOINT mixamorig:RightHandMiddle3
										{
											OFFSET -2.949974 0.000015 -0.002054
											CHANNELS 6 Xposition Yposition Zposition Xrotation Yrotation Zrotation
											JOINT mixamorig:RightHandMiddle4
											{
												OFFSET -2.946640 0.000000 -0.000156
												CHANNELS 6 Xposition Yposition Zposition Xrotation Yrotation Zrotation
												End Site
												{
													OFFSET -294.664337 0.000000 -0.113670
												}
											}
										}
									}
								}
								JOINT mixamorig:RightHandRing1
								{
									OFFSET -9.103600 -0.043076 -1.865134
									CHANNELS 6 Xposition Yposition Zposition Xrotation Yrotation Zrotation
									JOINT mixamorig:RightHandRing2
									{
										OFFSET -3.379288 0.000000 -0.001055
										CHANNELS 6 Xposition Yposition Zposition Xrotation Yrotation Zrotation
										JOINT mixamorig:RightHandRing3
										{
											OFFSET -2.889687 -0.000015 0.000379
											CHANNELS 6 Xposition Yposition Zposition Xrotation Yrotation Zrotation
											JOINT mixamorig:RightHandRing4
											{
												OFFSET -2.638809 -0.000015 0.000941
												CHANNELS 6 Xposition Yposition Zposition Xrotation Yrotation Zrotation
												End Site
												{
													OFFSET -263.880371 0.000000 0.516020
												}
											}
										}
									}
								}
								JOINT mixamorig:RightHandPinky1
								{
									OFFSET -8.076683 -0.486710 -3.806280
									CHANNELS 6 Xposition Yposition Zposition Xrotation Yrotation Zrotation
									JOINT mixamorig:RightHandPinky2
									{
										OFFSET -3.600014 -0.000015 -0.003747
										CHANNELS 6 Xposition Yposition Zposition Xrotation Yrotation Zrotation
										JOINT mixamorig:RightHandPinky3
										{
											OFFSET -2.099983 0.000000 -0.005739
											CHANNELS 6 Xposition Yposition Zposition Xrotation Yrotation Zrotation
											JOINT mixamorig:RightHandPinky4
											{
												OFFSET -2.115768 -0.000031 -0.003680
												CHANNELS 6 Xposition Yposition Zposition Xrotation Yrotation Zrotation
												End Site
												{
													OFFSET -211.577087 0.000000 -0.350686
												}
											}
										}
									}
								}
							}
						}
					}
				}
				JOINT mixamorig:LeftShoulder
				{
					OFFSET 4.570447 11.014725 -2.160855
					CHANNELS 6 Xposition Yposition Zposition Xrotation Yrotation Zrotation
					JOINT mixamorig:LeftArm
					{
						OFFSET 10.592371 -0.524597 -2.232119
						CHANNELS 6 Xposition Yposition Zposition Xrotation Yrotation Zrotation
						JOINT mixamorig:LeftForeArm
						{
							OFFSET 27.841532 -0.000031 0.000026
							CHANNELS 6 Xposition Yposition Zposition Xrotation Yrotation Zrotation
							JOINT mixamorig:LeftHand
							{
								OFFSET 28.328846 -0.000061 0.000022
								CHANNELS 6 Xposition Yposition Zposition Xrotation Yrotation Zrotation
								JOINT mixamorig:LeftHandThumb1
								{
									OFFSET 2.466141 -1.576172 2.681732
									CHANNELS 6 Xposition Yposition Zposition Xrotation Yrotation Zrotation
									JOINT mixamorig:LeftHandThumb2
									{
										OFFSET 3.217812 -1.872070 1.916482
										CHANNELS 6 Xposition Yposition Zposition Xrotation Yrotation Zrotation
										JOINT mixamorig:LeftHandThumb3
										{
											OFFSET 2.656029 -1.528778 1.514513
											CHANNELS 6 Xposition Yposition Zposition Xrotation Yrotation Zrotation
											JOINT mixamorig:LeftHandThumb4
											{
												OFFSET 2.020889 -1.154053 1.115139
												CHANNELS 6 Xposition Yposition Zposition Xrotation Yrotation Zrotation
												End Site
												{
													OFFSET 190.885437 -115.081749 130.048782
												}
											}
										}
									}
								}
								JOINT mixamorig:LeftHandIndex1
								{
									OFFSET 9.109314 -0.518021 2.259871
									CHANNELS 6 Xposition Yposition Zposition Xrotation Yrotation Zrotation
									JOINT mixamorig:LeftHandIndex2
									{
										OFFSET 3.699989 0.000000 -0.000322
										CHANNELS 6 Xposition Yposition Zposition Xrotation Yrotation Zrotation
										JOINT mixamorig:LeftHandIndex3
										{
											OFFSET 2.850006 0.000000 0.000352
											CHANNELS 6 Xposition Yposition Zposition Xrotation Yrotation Zrotation
											JOINT mixamorig:LeftHandIndex4
											{
												OFFSET 2.774864 -0.000031 -0.000027
												CHANNELS 6 Xposition Yposition Zposition Xrotation Yrotation Zrotation
												End Site
												{
													OFFSET 277.486267 0.000000 -0.009857
												}
											}
										}
									}
								}
								JOINT mixamorig:LeftHandMiddle1
								{
									OFFSET 9.533394 0.000061 0.000044
									CHANNELS 6 Xposition Yposition Zposition Xrotation Yrotation Zrotation
									JOINT mixamorig:LeftHandMiddle2
									{
										OFFSET 3.699989 -0.000015 -0.000231
										CHANNELS 6 Xposition Yposition Zposition Xrotation Yrotation Zrotation
										JOINT mixamorig:LeftHandMiddle3
										{
											OFFSET 2.949997 -0.000015 -0.000059
											CHANNELS 6 Xposition Yposition Zposition Xrotation Yrotation Zrotation
											JOINT mixamorig:LeftHandMiddle4
											{
												OFFSET 2.952896 0.000031 0.000063
												CHANNELS 6 Xposition Yposition Zposition Xrotation Yrotation Zrotation
												End Site
												{
													OFFSET 295.289337 0.000000 0.022810
												}
											}
										}
									}
								}
								JOINT mixamorig:LeftHandRing1
								{
									OFFSET 9.104523 -0.042999 -1.865074
									CHANNELS 6 Xposition Yposition Zposition Xrotation Yrotation Zrotation
									JOINT mixamorig:LeftHandRing2
									{
										OFFSET 3.150009 -0.000031 0.000043
										CHANNELS 6 Xposition Yposition Zposition Xrotation Yrotation Zrotation
										JOINT mixamorig:LeftHandRing3
										{
											OFFSET 2.949982 -0.000015 0.000040
											CHANNELS 6 Xposition Yposition Zposition Xrotation Yrotation Zrotation
											JOINT mixamorig:LeftHandRing4
											{
												OFFSET 2.644348 0.000000 0.000057
												CHANNELS 6 Xposition Yposition Zposition Xrotation Yrotation Zrotation
												End Site
												{
													OFFSET 264.434631 0.000000 0.012105
												}
											}
										}
									}
								}
								JOINT mixamorig:LeftHandPinky1
								{
									OFFSET 8.077789 -0.486847 -3.806259
									CHANNELS 6 Xposition Yposition Zposition Xrotation Yrotation Zrotation
									JOINT mixamorig:LeftHandPinky2
									{
										OFFSET 3.599953 0.000031 0.014727
										CHANNELS 6 Xposition Yposition Zposition Xrotation Yrotation Zrotation
										JOINT mixamorig:LeftHandPinky3
										{
											OFFSET 2.100021 0.000015 0.007705
											CHANNELS 6 Xposition Yposition Zposition Xrotation Yrotation Zrotation
											JOINT mixamorig:LeftHandPinky4
											{
												OFFSET 2.125504 0.000031 0.007517
												CHANNELS 6 Xposition Yposition Zposition Xrotation Yrotation Zrotation
												End Site
												{
													OFFSET 212.550781 0.000000 0.625752
												}
											}
										}
									}
								}
							}
						}
					}
				}
			}
		}
	}
	JOINT mixamorig:RightUpLeg
	{
		OFFSET -8.207787 -6.751648 -1.599560
		CHANNELS 6 Xposition Yposition Zposition Xrotation Yrotation Zrotation
		JOINT mixamorig:RightLeg
		{
			OFFSET -0.000002 -44.370117 0.345942
			CHANNELS 6 Xposition Yposition Zposition Xrotation Yrotation Zrotation
			JOINT mixamorig:RightFoot
			{
				OFFSET 0.000003 -44.423679 -3.043532
				CHANNELS 6 Xposition Yposition Zposition Xrotation Yrotation Zrotation
				JOINT mixamorig:RightToeBase
				{
					OFFSET -0.000002 -8.728671 10.710558
					CHANNELS 6 Xposition Yposition Zposition Xrotation Yrotation Zrotation
					JOINT mixamorig:RightToe_End
					{
						OFFSET -0.000001 -0.000679 9.278119
						CHANNELS 6 Xposition Yposition Zposition Xrotation Yrotation Zrotation
						End Site
						{
							OFFSET 0.000000 -0.067690 927.812134
						}
					}
				}
			}
		}
	}
	JOINT mixamorig:LeftUpLeg
	{
		OFFSET 8.207793 -6.751686 -1.599556
		CHANNELS 6 Xposition Yposition Zposition Xrotation Yrotation Zrotation
		JOINT mixamorig:LeftLeg
		{
			OFFSET -0.000004 -44.370014 0.346954
			CHANNELS 6 Xposition Yposition Zposition Xrotation Yrotation Zrotation
			JOINT mixamorig:LeftFoot
			{
				OFFSET -0.000001 -44.423672 -3.044401
				CHANNELS 6 Xposition Yposition Zposition Xrotation Yrotation Zrotation
				JOINT mixamorig:LeftToeBase
				{
					OFFSET -0.000002 -8.728669 10.710558
					CHANNELS 6 Xposition Yposition Zposition Xrotation Yrotation Zrotation
					JOINT mixamorig:LeftToe_End
					{
						OFFSET -0.000003 -0.000679 9.278133
						CHANNELS 6 Xposition Yposition Zposition Xrotation Yrotation Zrotation
						End Site
						{
							OFFSET 0.000000 -0.068021 927.813477
						}
					}
				}
			}
		}
	}
}
MOTION
Frames: 3
Frame Time: 0.033333
0.000006 104.270477 1.554256 0.000010 0.000003 -0.000113 -0.000005 10.181587 0.131522 0.000001 -0.000003 0.000084 -0.000000 9.893967 -1.470711 0.000001 0.000000 -0.000000 -0.000000 9.220802 -1.370642 0.000000 -0.000000 -0.000000 0.000001 16.740433 -2.049030 0.000000 -0.000000 -0.000000 0.000000 9.617859 1.685014 0.000000 0.000000 0.000000 0.000002 22.037384 7.501101 0.000000 -0.000000 0.000000 -4.569968 11.014880 -2.160881 0.000008 0.000001 -0.000038 -10.592868 -0.524779 -2.231872 73.901697 35.465945 -27.049754 -27.841503 0.000028 0.000551 -47.780814 107.035553 61.841974 -28.328814 0.000010 0.000027 -0.000322 -0.000040 0.000004 -2.464410 -1.573866 2.682354 -38.817973 -156.430839 9.987911 -3.215274 -1.872591 1.924649 155.232797 31.807675 4.539541 -2.654962 -1.527870 1.513081 144.422287 27.410789 -37.450774 -2.018819 -1.152013 1.108061 -0.000003 -0.000001 0.000005 -9.108385 -0.517555 2.260144 103.452682 16.267427 -20.593401 -3.700069 0.000325 0.001538 100.659804 12.558309 -15.087208 -2.850090 0.000374 -0.000246 99.001536 10.362259 -12.119672 -2.772161 0.000001 -0.000018 -0.000000 -0.000003 -0.000001 -9.532597 0.000259 0.000243 91.609222 17.563273 -18.203827 -3.700068 0.000336 0.003972 94.224099 10.925795 -11.656424 -2.950046 0.000330 -0.001803 97.164960 11.046741 -12.503343 -2.946636 0.000014 -0.000156 -0.000001 -0.000000 0.000001 -9.103713 -0.042780 -1.864874 89.965025 20.721295 -20.662905 -3.379336 0.000323 -0.000811 93.534414 8.976656 -9.563934 -2.889754 0.000359 0.000659 100.712451 6.710126 -8.149122 -2.638801 -0.000003 0.000941 -0.000003 -0.000000 -0.000000 -8.076786 -0.486424 -3.806047 80.362237 23.046537 -19.402527 -3.600050 0.000265 -0.003542 82.505885 10.378383 -8.788181 -2.099997 0.000316 -0.005499 87.320253 5.599260 -5.134420 -2.115758 -0.000054 -0.003678 0.000002 0.000002 -0.000001 4.570446 11.014691 -2.160851 -0.000018 0.000010 -0.000021 10.592499 -0.524563 -2.232368 47.088909 -66.195236 31.711998 27.841753 -0.000057 -0.000087 222.906803 -72.042622 236.778616 28.328838 -0.000029 0.000022 0.000022 -0.000088 0.000000 2.466022 -1.576200 2.681883 149.850457 44.869411 -197.359300 3.217767 -1.872069 1.916520 52.132898 123.504095 -105.489984 2.656013 -1.528789 1.514602 249.653769 47.038406 55.960607 2.020895 -1.154056 1.115156 -0.000001 -0.000000 0.000001 9.109232 -0.517697 2.260069 221.062283 -10.714159 -28.096813 3.699819 0.000318 -0.000139 211.546368 -14.871945 -49.619337 2.849841 0.000365 0.000517 204.323784 -12.769415 -54.876670 2.774881 -0.000031 -0.000063 -0.000001 -0.000001 -0.000001 9.533323 0.000399 0.000232 217.761116 -8.769586 -25.259638 3.699832 0.000325 -0.000052 208.182650 -12.890537 -48.454998 2.949861 0.000357 0.000095 -154.859540 -10.338071 -44.169652 2.952872 -0.000046 0.000060 0.000002 0.000002 0.000000 9.104452 -0.042686 -1.864887 217.614034 -8.089963 336.535824 3.149910 0.000413 0.000210 209.421687 -6.501047 -24.416183 2.949914 0.000434 0.000200 -154.965094 -4.391234 -19.600754 2.644321 0.000031 0.000070 0.000001 -0.000000 -0.000002 8.077737 -0.486533 -3.806065 221.109110 -5.120188 345.346085 3.599960 0.000388 0.014908 214.889909 -0.109282 -1.671180 2.099992 0.000357 0.007879 -151.287980 0.558950 0.590939 2.125503 -0.000015 0.007514 0.000001 0.000002 0.000000 -8.207786 -6.751667 -1.599560 -0.077001 -0.000003 0.000080 -0.000002 -44.370110 0.345938 0.153719 -0.000000 -0.000000 0.000000 -44.423679 -3.043532 -0.076700 0.000000 -0.000002 -0.000006 -8.728667 10.710559 -0.000009 -0.000000 -0.000000 -0.000001 -0.000679 9.278123 0.000000 -0.000000 -0.000000 8.207792 -6.751710 -1.599556 -0.074518 -0.000003 0.000081 -0.000002 -44.370014 0.346960 0.148822 0.000002 0.000000 -0.000001 -44.423664 -3.044403 -0.074314 0.000000 -0.000002 -0.000004 -8.728671 10.710558 0.000007 -0.000000 -0.000000 0.000000 -0.000680 9.278137 -0.000000 0.000000 -0.000001 
0.000006 104.270477 1.554256 0.000010 0.000003 -0.000113 -0.000005 10.181587 0.131522 0.000001 -0.000003 0.000084 -0.000000 9.893967 -1.470711 0.000001 0.000000 -0.000000 -0.000000 9.220802 -1.370642 0.000000 -0.000000 -0.000000 0.000001 16.740433 -2.049030 0.000000 -0.000000 -0.000000 0.000000 9.617859 1.685014 0.000000 0.000000 0.000000 0.000002 22.037384 7.501101 0.000000 -0.000000 0.000000 -4.569968 11.014880 -2.160881 0.000008 0.000001 -0.000038 -10.592867 -0.524783 -2.231882 73.824209 35.529616 -27.062944 -27.841518 0.000015 0.000549 -48.549005 106.724513 62.466212 -28.328827 0.000018 0.000032 -0.000320 -0.000043 0.000006 -2.464399 -1.573833 2.682362 -40.716171 -157.673906 6.207433 -3.215290 -1.872593 1.924649 155.040882 31.807802 4.694282 -2.654958 -1.527904 1.513075 144.207642 27.437932 -37.668814 -2.018834 -1.152011 1.108066 -0.000004 -0.000001 0.000002 -9.108372 -0.517564 2.260143 103.018965 16.361563 -20.554300 -3.700066 0.000320 0.001520 99.719901 12.683195 -14.987979 -2.850090 0.000369 -0.000259 97.785223 10.436974 -11.949627 -2.772177 -0.000015 -0.000019 0.000001 -0.000004 -0.000001 -9.532593 0.000262 0.000253 91.790584 17.680573 -18.381590 -3.700069 0.000340 0.003957 93.714321 11.196199 -11.841487 -2.950047 0.000324 -0.001822 96.777394 11.056595 -12.430157 -2.946638 0.000015 -0.000160 0.000002 -0.000001 -0.000001 -9.103696 -0.042772 -1.864863 90.297164 20.945532 -21.005673 -3.379347 0.000332 -0.000814 93.298526 9.228499 -9.791377 -2.889754 0.000354 0.000642 100.408173 6.584649 -7.954874 -2.638809 -0.000013 0.000937 0.000000 0.000000 0.000000 -8.076780 -0.486412 -3.806021 79.851031 23.003167 -19.194126 -3.600048 0.000271 -0.003540 82.607771 10.573450 -8.974851 -2.100026 0.000315 -0.005515 87.847824 5.475634 -5.063197 -2.115774 -0.000038 -0.003678 -0.000002 -0.000000 0.000002 4.570446 11.014691 -2.160851 -0.000018 0.000010 -0.000021 10.592499 -0.524570 -2.232376 50.702178 -64.011317 32.990405 27.841780 -0.000078 -0.000113 213.596626 -74.635786 223.209694 28.328838 -0.000044 0.000013 0.000019 -0.000089 0.000000 2.466163 -1.576138 2.681886 174.742808 34.106584 -241.874648 3.217772 -1.872025 1.916536 28.461115 134.683995 -90.488224 2.656058 -1.528775 1.514603 224.113342 37.626973 70.840687 2.020891 -1.154068 1.115149 0.000001 0.000002 0.000002 9.109171 -0.517746 2.260070 224.549723 -20.092837 -46.768146 3.699823 0.000277 -0.000121 223.587390 -25.229775 -58.481056 2.849870 0.000309 0.000580 225.248642 -20.193755 -46.270761 2.774880 -0.000032 -0.000039 -0.000004 0.000001 -0.000000 9.533270 0.000349 0.000251 225.501701 -18.106977 -41.602778 3.699822 0.000319 -0.000020 222.607285 -20.505247 -49.765346 2.949868 0.000311 0.000140 -136.392717 -15.843959 -38.362802 2.952874 -0.000030 0.000071 -0.000003 0.000000 -0.000000 9.104413 -0.042726 -1.864873 226.720889 -17.289331 321.214508 3.149908 0.000373 0.000239 225.074104 -12.437901 -29.429164 2.949905 0.000364 0.000251 -135.595743 -8.397501 -20.396816 2.644322 0.000048 0.000055 0.000003 -0.000000 -0.000002 8.077671 -0.486604 -3.806044 232.817872 -18.555609 323.104394 3.599890 0.000388 0.014940 227.482756 -8.301829 -19.478368 2.099961 0.000354 0.007905 -134.814807 -4.490519 -11.614405 2.125505 -0.000026 0.007511 0.000005 -0.000002 -0.000000 -8.207786 -6.751667 -1.599560 -0.077001 -0.000003 0.000080 -0.000002 -44.370110 0.345938 0.153719 -0.000000 -0.000000 0.000000 -44.423679 -3.043532 -0.076700 0.000000 -0.000002 -0.000006 -8.728667 10.710559 -0.000009 -0.000000 -0.000000 -0.000001 -0.000679 9.278123 0.000000 -0.000000 -0.000000 8.207792 -6.751710 -1.599556 -0.074518 -0.000003 0.000081 -0.000002 -44.370014 0.346960 0.148822 0.000002 0.000000 -0.000001 -44.423664 -3.044403 -0.074314 0.000000 -0.000002 -0.000004 -8.728671 10.710558 0.000007 -0.000000 -0.000000 0.000000 -0.000680 9.278137 -0.000000 0.000000 -0.000001 
0.000006 104.270477 1.554256 0.000010 0.000003 -0.000113 -0.000005 10.181587 0.131522 0.000001 -0.000003 0.000084 -0.000000 9.893967 -1.470711 0.000001 0.000000 -0.000000 -0.000000 9.220802 -1.370642 0.000000 -0.000000 -0.000000 0.000001 16.740433 -2.049030 0.000000 -0.000000 -0.000000 0.000000 9.617859 1.685014 0.000000 0.000000 0.000000 0.000002 22.037384 7.501101 0.000000 -0.000000 0.000000 -4.569968 11.014880 -2.160881 0.000008 0.000001 -0.000038 -10.592869 -0.524784 -2.231863 73.651883 37.299100 -28.365760 -27.841526 0.000012 0.000551 -48.860475 107.381161 63.447198 -28.328827 0.000007 0.000039 -0.000319 -0.000044 0.000010 -2.464426 -1.573848 2.682360 -40.296006 -158.310316 7.389740 -3.215289 -1.872579 1.924663 155.663221 31.788301 4.090119 -2.654969 -1.527877 1.513073 144.720739 27.293880 -38.196023 -2.018845 -1.151997 1.108051 -0.000003 -0.000002 0.000000 -9.108375 -0.517552 2.260145 103.315388 16.493683 -20.826545 -3.700069 0.000332 0.001507 99.188355 13.147225 -15.391623 -2.850090 0.000360 -0.000256 96.777244 10.916388 -12.279543 -2.772176 -0.000016 -0.000019 -0.000000 -0.000001 -0.000001 -9.532592 0.000258 0.000235 91.143069 17.297002 -17.786984 -3.700064 0.000315 0.003964 93.032873 10.468058 -10.936085 -2.950066 0.000350 -0.001788 95.364604 10.838178 -11.888596 -2.946629 0.000015 -0.000154 -0.000000 0.000000 0.000002 -9.103693 -0.042778 -1.864884 89.526718 19.965244 -19.758854 -3.379315 0.000339 -0.000818 93.112998 7.811279 -8.264058 -2.889747 0.000349 0.000646 99.469882 6.209882 -7.381906 -2.638811 -0.000013 0.000938 0.000000 -0.000002 0.000001 -8.076759 -0.486423 -3.806036 79.328351 22.686267 -18.754432 -3.600049 0.000270 -0.003545 82.384103 9.485317 -7.990071 -2.100026 0.000312 -0.005514 87.192440 5.044373 -4.596199 -2.115780 -0.000052 -0.003675 -0.000002 0.000000 -0.000005 4.570446 11.014691 -2.160851 -0.000018 0.000010 -0.000021 10.592501 -0.524546 -2.232375 53.141529 -63.720699 34.532706 27.841785 -0.000031 -0.000121 210.025940 -76.481077 217.588530 28.328838 -0.000029 0.000020 0.000022 -0.000087 -0.000000 2.466115 -1.576175 2.681886 172.393018 36.304597 -236.812193 3.217771 -1.872036 1.916534 25.619176 134.231249 -87.262852 2.656042 -1.528782 1.514613 225.352270 40.161208 71.480095 2.020894 -1.154084 1.115145 0.000000 0.000002 0.000004 9.109196 -0.517750 2.260094 226.560872 -19.418822 -43.362310 3.699854 0.000267 -0.000109 229.605934 -22.480576 -46.551182 2.849897 0.000306 0.000568 231.711217 -17.407605 -35.061243 2.774879 -0.000045 -0.000029 0.000001 0.000001 0.000000 9.533279 0.000335 0.000264 227.674206 -16.983136 -37.333613 3.699852 0.000322 -0.000015 227.062891 -17.328950 -38.571550 2.949906 0.000299 0.000150 -130.853092 -13.670081 -29.379710 2.952873 -0.000015 0.000058 0.000003 0.000001 0.000000 9.104413 -0.042737 -1.864861 228.083485 -16.497005 323.993630 3.149922 0.000371 0.000254 225.960375 -11.720742 -27.214773 2.949914 0.000356 0.000248 -134.630829 -8.654792 -20.525427 2.644317 0.000030 0.000064 -0.000001 -0.000001 0.000000 8.077665 -0.486619 -3.806010 234.589022 -18.990728 323.621275 3.599870 0.000386 0.014935 228.325328 -9.113494 -20.852398 2.099952 0.000368 0.007909 -136.688778 -5.389822 -14.378884 2.125518 -0.000016 0.007518 0.000004 -0.000000 0.000000 -8.207786 -6.751667 -1.599560 -0.077001 -0.000003 0.000080 -0.000002 -44.370110 0.345938 0.153719 -0.000000 -0.000000 0.000000 -44.423679 -3.043532 -0.076700 0.000000 -0.000002 -0.000006 -8.728667 10.710559 -0.000009 -0.000000 -0.000000 -0.000001 -0.000679 9.278123 0.000000 -0.000000 -0.000000 8.207792 -6.751710 -1.599556 -0.074518 -0.000003 0.000081 -0.000002 -44.370014 0.346960 0.148822 0.000002 0.000000 -0.000001 -44.423664 -3.044403 -0.074314 0.000000 -0.000002 -0.000004 -8.728671 10.710558 0.000007 -0.000000 -0.000000 0.000000 -0.000680 9.278137 -0.000000 0.000000 -0.000001 
